<svg viewBox="0 0 320 340" xmlns="http://www.w3.org/2000/svg" role="img" aria-label="손을 흔들며 인사하는 곰 캐릭터 든든이">
  <ellipse cx="160" cy="315" rx="90" ry="14" fill="#16324A" opacity="0.08"/>

  <!-- 몸통 -->
  <ellipse cx="160" cy="230" rx="80" ry="72" fill="#F4A340"/>
  <ellipse cx="160" cy="248" rx="46" ry="40" fill="#FFF8EF"/>

  <!-- 왼팔(오른쪽 화면 기준) - 흔드는 팔 -->
  <g>
    <ellipse cx="228" cy="188" rx="20" ry="34" fill="#F4A340" transform="rotate(-25 228 188)"/>
    <circle cx="240" cy="158" r="16" fill="#F4A340"/>
  </g>
  <!-- 오른팔 -->
  <ellipse cx="96" cy="230" rx="18" ry="30" fill="#F4A340"/>
  <circle cx="88" cy="256" r="14" fill="#F4A340"/>

  <ellipse cx="128" cy="298" rx="18" ry="14" fill="#F4A340"/>
  <ellipse cx="192" cy="298" rx="18" ry="14" fill="#F4A340"/>

  <!-- 머리 -->
  <circle cx="160" cy="120" r="72" fill="#F4A340"/>
  <circle cx="104" cy="66" r="24" fill="#F4A340"/>
  <circle cx="216" cy="66" r="24" fill="#F4A340"/>
  <circle cx="104" cy="66" r="11" fill="#FFD9B3"/>
  <circle cx="216" cy="66" r="11" fill="#FFD9B3"/>

  <!-- 볼터치 -->
  <ellipse cx="118" cy="140" rx="14" ry="9" fill="#FFB6A3" opacity="0.8"/>
  <ellipse cx="202" cy="140" rx="14" ry="9" fill="#FFB6A3" opacity="0.8"/>

  <!-- 눈 -->
  <circle cx="134" cy="112" r="7" fill="#4A3423"/>
  <circle cx="186" cy="112" r="7" fill="#4A3423"/>
  <circle cx="137" cy="109" r="2" fill="#fff"/>
  <circle cx="189" cy="109" r="2" fill="#fff"/>

  <!-- 코 & 입(주둥이) -->
  <ellipse cx="160" cy="140" rx="26" ry="20" fill="#FFF8EF"/>
  <ellipse cx="160" cy="136" rx="8" ry="6" fill="#4A3423"/>
  <path d="M148 148 Q160 158 172 148" stroke="#4A3423" stroke-width="2.5" fill="none" stroke-linecap="round"/>
</svg>
